<svg width="20" height="20" viewBox="0 0 20 20" fill="none" xmlns="http://www.w3.org/2000/svg">
<g clip-path="url(#clip0_134_22)">
<path d="M14.3026 2.79272C12.0971 2.79272 10.276 4.43833 10 6.56864C9.72398 4.43833 7.90293 2.79272 5.69743 2.79272C3.30113 2.79272 1.35857 4.73529 1.35857 7.13159C1.35857 9.52788 4.23724 11.9912 5.53406 13.1044C6.74562 14.1443 10 17.2072 10 17.2072C10 17.2072 13.2544 14.1443 14.4659 13.1044C15.7628 11.9912 18.6414 9.52788 18.6414 7.13159C18.6414 4.73529 16.6989 2.79272 14.3026 2.79272Z" fill="#FF1D25"/>
<path d="M10 17.5658C9.91165 17.5658 9.8233 17.5333 9.75424 17.4684C9.72175 17.4378 6.49197 14.3992 5.30049 13.3764L5.28802 13.3657C3.89617 12.1711 1 9.68505 1 7.13163C1 4.54146 3.10725 2.4342 5.69743 2.4342C7.59635 2.4342 9.26684 3.57853 10 5.24471C10.7331 3.57853 12.4036 2.4342 14.3026 2.4342C16.8927 2.4342 19 4.54146 19 7.13163C19 9.68501 16.1038 12.171 14.712 13.3657L14.6995 13.3764C13.508 14.3993 10.2782 17.4378 10.2458 17.4684C10.1767 17.5333 10.0883 17.5658 10 17.5658ZM5.69743 3.15134C3.50268 3.15134 1.71713 4.93689 1.71713 7.13163C1.71713 9.35549 4.54682 11.7844 5.75512 12.8216L5.7676 12.8323C6.7766 13.6984 9.21718 15.9811 10 16.7154C10.7828 15.9811 13.2234 13.6984 14.2324 12.8323L14.2449 12.8216C15.4532 11.7844 18.2829 9.35549 18.2829 7.13163C18.2829 4.93689 16.4973 3.15134 14.3026 3.15134C12.3083 3.15134 10.6115 4.64028 10.3556 6.61476C10.3324 6.79347 10.1802 6.92725 10 6.92725C9.81978 6.92725 9.66757 6.7935 9.64441 6.61476C9.38857 4.64028 7.69173 3.15134 5.69743 3.15134Z" fill="#48484D"/>
<path d="M10.0361 15.7737C9.94848 15.7737 9.86063 15.7418 9.7915 15.6772C8.82573 14.7754 7.08543 13.1595 6.28081 12.4688L6.26991 12.4594C6.1347 12.3434 5.98141 12.2118 5.81625 12.0673C5.6672 11.9369 5.65203 11.7104 5.78244 11.5614C5.91278 11.4123 6.13932 11.3971 6.28838 11.5276C6.45102 11.6698 6.60295 11.8002 6.73702 11.9153L6.74792 11.9246C7.52163 12.5888 9.09624 14.0469 10.2809 15.1531C10.4257 15.2883 10.4334 15.5151 10.2983 15.6599C10.2277 15.7355 10.132 15.7737 10.0361 15.7737Z" fill="#48484D"/>
<path d="M5.06194 11.2479C4.97194 11.2479 4.88191 11.2142 4.81224 11.1466C4.57519 10.9165 4.35091 10.6875 4.14559 10.466C4.01099 10.3207 4.01959 10.0939 4.16485 9.95923C4.31007 9.82462 4.53693 9.83323 4.67157 9.97848C4.86835 10.1908 5.08374 10.4107 5.31175 10.632C5.45385 10.77 5.45723 10.997 5.31928 11.1391C5.24893 11.2115 5.15549 11.2479 5.06194 11.2479Z" fill="#48484D"/>
</g>
<defs>
<clipPath id="clip0_134_22">
<rect width="18" height="18" fill="white" transform="translate(1 1)"/>
</clipPath>
</defs>
</svg>
