<svg width="20" height="20" viewBox="0 0 20 20" fill="none" xmlns="http://www.w3.org/2000/svg">
<mask id="path-1-inside-1_19_37" fill="white">
<path fill-rule="evenodd" clip-rule="evenodd" d="M10.6622 18.3126C12.4075 16.6014 17 11.8106 17 8.77838C17 5.03479 13.866 2 10 2C6.13401 2 3 5.03479 3 8.77838C3 11.8106 7.59251 16.6014 9.33782 18.3126C9.70847 18.676 10.2915 18.676 10.6622 18.3126ZM10 10.4729C10.9665 10.4729 11.75 9.71424 11.75 8.77834C11.75 7.84244 10.9665 7.08374 10 7.08374C9.0335 7.08374 8.25 7.84244 8.25 8.77834C8.25 9.71424 9.0335 10.4729 10 10.4729Z"/>
</mask>
<path d="M10.6622 18.3126L9.9621 17.5985L9.96209 17.5985L10.6622 18.3126ZM9.33782 18.3126L8.63773 19.0266L8.63773 19.0266L9.33782 18.3126ZM16 8.77838C16 9.30712 15.7921 10.0094 15.3634 10.8542C14.9429 11.6829 14.3529 12.5662 13.6906 13.4343C12.3665 15.1696 10.8206 16.7568 9.9621 17.5985L11.3623 19.0266C12.249 18.1572 13.8721 16.4934 15.2806 14.6475C15.9845 13.7249 16.6518 12.7351 17.1469 11.7592C17.6339 10.7995 18 9.76577 18 8.77838H16ZM10 3C13.3443 3 16 5.61715 16 8.77838H18C18 4.45242 14.3877 1 10 1V3ZM4 8.77838C4 5.61715 6.65572 3 10 3V1C5.61229 1 2 4.45242 2 8.77838H4ZM10.0379 17.5985C9.17935 16.7568 7.63355 15.1696 6.30942 13.4343C5.64706 12.5662 5.05709 11.6829 4.63662 10.8542C4.20794 10.0094 4 9.30712 4 8.77838H2C2 9.76577 2.36612 10.7995 2.85308 11.7592C3.34825 12.7351 4.01549 13.7249 4.71942 14.6475C6.12787 16.4934 7.75097 18.1572 8.63773 19.0266L10.0379 17.5985ZM9.96209 17.5985C9.96376 17.5969 9.96877 17.5929 9.97681 17.5896C9.98429 17.5866 9.99221 17.5851 10 17.5851C10.0078 17.5851 10.0157 17.5866 10.0232 17.5896C10.0312 17.5929 10.0362 17.5969 10.0379 17.5985L8.63773 19.0266C9.39724 19.7713 10.6028 19.7713 11.3623 19.0266L9.96209 17.5985ZM10.75 8.77834C10.75 9.13187 10.4448 9.47293 10 9.47293V11.4729C11.4882 11.4729 12.75 10.2966 12.75 8.77834H10.75ZM10 8.08374C10.4448 8.08374 10.75 8.4248 10.75 8.77834H12.75C12.75 7.26007 11.4882 6.08374 10 6.08374V8.08374ZM9.25 8.77834C9.25 8.4248 9.55522 8.08374 10 8.08374V6.08374C8.51179 6.08374 7.25 7.26007 7.25 8.77834H9.25ZM10 9.47293C9.55522 9.47293 9.25 9.13187 9.25 8.77834H7.25C7.25 10.2966 8.51179 11.4729 10 11.4729V9.47293Z" fill="#48484D" mask="url(#path-1-inside-1_19_37)"/>
</svg>
