<svg width="20" height="20" viewBox="0 0 20 20" fill="none" xmlns="http://www.w3.org/2000/svg">
<circle cx="10" cy="10" r="5.5" stroke="#48484D"/>
<path d="M9.604 11.436C9.604 11.252 9.62133 11.0747 9.656 10.904C9.69333 10.7307 9.75333 10.5707 9.836 10.424C9.908 10.2827 9.988 10.1707 10.076 10.088C10.164 10.0027 10.2627 9.91867 10.372 9.836C10.4813 9.75067 10.6027 9.63733 10.736 9.496C10.8453 9.376 10.9173 9.25733 10.952 9.14C10.9867 9.02 11.004 8.892 11.004 8.756C11.004 8.668 10.9947 8.58533 10.976 8.508C10.9573 8.43067 10.924 8.364 10.876 8.308C10.8013 8.20933 10.7053 8.14 10.588 8.1C10.4707 8.05733 10.3453 8.036 10.212 8.036C10.1027 8.036 9.99733 8.05067 9.896 8.08C9.79733 8.10667 9.71333 8.14933 9.644 8.208C9.564 8.272 9.50533 8.35067 9.468 8.444C9.43067 8.53733 9.41333 8.64 9.416 8.752H8.4C8.42667 8.48533 8.49867 8.23867 8.616 8.012C8.736 7.78267 8.89333 7.6 9.088 7.464C9.24 7.352 9.41067 7.268 9.6 7.212C9.792 7.156 9.984 7.128 10.176 7.128C10.4693 7.128 10.7453 7.17333 11.004 7.264C11.2653 7.35467 11.4827 7.504 11.656 7.712C11.776 7.848 11.8667 8.00533 11.928 8.184C11.992 8.36267 12.024 8.544 12.024 8.728C12.024 9.00267 11.964 9.25333 11.844 9.48C11.7267 9.70667 11.5773 9.916 11.396 10.108C11.3107 10.1987 11.2293 10.2787 11.152 10.348C11.0747 10.4173 11.0027 10.4853 10.936 10.552C10.872 10.616 10.8187 10.684 10.776 10.756C10.7013 10.8813 10.6573 10.988 10.644 11.076C10.6307 11.1613 10.624 11.2813 10.624 11.436H9.604ZM9.612 13V11.94H10.624V13H9.612Z" fill="#48484D"/>
</svg>
