<svg width="12" height="20" viewBox="0 0 12 20" fill="none" xmlns="http://www.w3.org/2000/svg">
<circle cx="6" cy="10" r="5.5" stroke="#48484D"/>
<path d="M5.604 11.436C5.604 11.252 5.62133 11.0747 5.656 10.904C5.69333 10.7307 5.75333 10.5707 5.836 10.424C5.908 10.2827 5.988 10.1707 6.076 10.088C6.164 10.0027 6.26267 9.91867 6.372 9.836C6.48133 9.75067 6.60267 9.63733 6.736 9.496C6.84533 9.376 6.91733 9.25733 6.952 9.14C6.98667 9.02 7.004 8.892 7.004 8.756C7.004 8.668 6.99467 8.58533 6.976 8.508C6.95733 8.43067 6.924 8.364 6.876 8.308C6.80133 8.20933 6.70533 8.14 6.588 8.1C6.47067 8.05733 6.34533 8.036 6.212 8.036C6.10267 8.036 5.99733 8.05067 5.896 8.08C5.79733 8.10667 5.71333 8.14933 5.644 8.208C5.564 8.272 5.50533 8.35067 5.468 8.444C5.43067 8.53733 5.41333 8.64 5.416 8.752H4.4C4.42667 8.48533 4.49867 8.23867 4.616 8.012C4.736 7.78267 4.89333 7.6 5.088 7.464C5.24 7.352 5.41067 7.268 5.6 7.212C5.792 7.156 5.984 7.128 6.176 7.128C6.46933 7.128 6.74533 7.17333 7.004 7.264C7.26533 7.35467 7.48267 7.504 7.656 7.712C7.776 7.848 7.86667 8.00533 7.928 8.184C7.992 8.36267 8.024 8.544 8.024 8.728C8.024 9.00267 7.964 9.25333 7.844 9.48C7.72667 9.70667 7.57733 9.916 7.396 10.108C7.31067 10.1987 7.22933 10.2787 7.152 10.348C7.07467 10.4173 7.00267 10.4853 6.936 10.552C6.872 10.616 6.81867 10.684 6.776 10.756C6.70133 10.8813 6.65733 10.988 6.644 11.076C6.63067 11.1613 6.624 11.2813 6.624 11.436H5.604ZM5.612 13V11.94H6.624V13H5.612Z" fill="#48484D"/>
</svg>
