<svg width="20" height="20" viewBox="0 0 20 20" fill="none" xmlns="http://www.w3.org/2000/svg">
<path fill-rule="evenodd" clip-rule="evenodd" d="M10 17.875C12.0886 17.875 14.0916 17.0453 15.5685 15.5685C17.0453 14.0916 17.875 12.0886 17.875 10C17.875 7.91142 17.0453 5.90838 15.5685 4.43153C14.0916 2.95469 12.0886 2.125 10 2.125C7.91142 2.125 5.90838 2.95469 4.43153 4.43153C2.95469 5.90838 2.125 7.91142 2.125 10C2.125 12.0886 2.95469 14.0916 4.43153 15.5685C5.90838 17.0453 7.91142 17.875 10 17.875V17.875ZM19 10C19 12.3869 18.0518 14.6761 16.364 16.364C14.6761 18.0518 12.3869 19 10 19C7.61305 19 5.32387 18.0518 3.63604 16.364C1.94821 14.6761 1 12.3869 1 10C1 7.61305 1.94821 5.32387 3.63604 3.63604C5.32387 1.94821 7.61305 1 10 1C12.3869 1 14.6761 1.94821 16.364 3.63604C18.0518 5.32387 19 7.61305 19 10V10Z" fill="#48484D"/>
<path fill-rule="evenodd" clip-rule="evenodd" d="M9.4375 4.375C9.58668 4.375 9.72976 4.43426 9.83525 4.53975C9.94074 4.64524 10 4.78832 10 4.9375V10.7988L13.654 12.8867C13.7798 12.9626 13.8709 13.0847 13.9078 13.2268C13.9448 13.369 13.9247 13.5199 13.8518 13.6475C13.779 13.775 13.6591 13.869 13.5179 13.9093C13.3766 13.9496 13.2252 13.9331 13.096 13.8633L9.1585 11.6133C9.07241 11.5641 9.00084 11.493 8.95106 11.4073C8.90127 11.3215 8.87503 11.2241 8.875 11.125V4.9375C8.875 4.78832 8.93426 4.64524 9.03975 4.53975C9.14524 4.43426 9.28832 4.375 9.4375 4.375V4.375Z" fill="#48484D"/>
</svg>
